<svg width="1480" height="1056" viewBox="0 0 1480 1056" fill="none" xmlns="http://www.w3.org/2000/svg">
<g filter="url(#filter0_d_247_457)">
<path d="M1147.33 1C1436.4 434.644 883.189 83.8068 670.205 1C670.205 1 254.811 711.737 63.6157 479.981C-56.4673 334.423 63.6157 1 63.6157 1C63.6157 1 143.361 1039.33 534.2 1045.83M1474.29 156.06C1220.04 380.125 1368.35 815.538 1474.29 1005.24C1474.29 1005.24 1108.45 802.664 895.912 889.956C801.25 928.834 686.801 1045.83 686.801 1045.83C686.801 1045.83 702.099 802.303 627.451 734.624C484.724 605.22 5.00007 842.78 5.00007 842.78" stroke="#0A0A0A" shape-rendering="crispEdges"/>
</g>
<defs>
<filter id="filter0_d_247_457" x="0.782715" y="0.379395" width="1478.8" height="1054.76" filterUnits="userSpaceOnUse" color-interpolation-filters="sRGB">
<feFlood flood-opacity="0" result="BackgroundImageFix"/>
<feColorMatrix in="SourceAlpha" type="matrix" values="0 0 0 0 0 0 0 0 0 0 0 0 0 0 0 0 0 0 127 0" result="hardAlpha"/>
<feOffset dy="4"/>
<feGaussianBlur stdDeviation="2"/>
<feComposite in2="hardAlpha" operator="out"/>
<feColorMatrix type="matrix" values="0 0 0 0 0 0 0 0 0 0 0 0 0 0 0 0 0 0 0.25 0"/>
<feBlend mode="normal" in2="BackgroundImageFix" result="effect1_dropShadow_247_457"/>
<feBlend mode="normal" in="SourceGraphic" in2="effect1_dropShadow_247_457" result="shape"/>
</filter>
</defs>
</svg>
