<svg width="766" height="167" viewBox="0 0 766 167" fill="none" xmlns="http://www.w3.org/2000/svg">
<path d="M76.8241 117.592V95.0874C76.8241 87.6254 74.1533 81.2624 68.8118 75.9994C63.5488 70.7364 57.2253 68.1044 49.8414 68.1044H49.0166C41.5541 68.1044 35.1914 70.7364 29.9284 75.9994C24.6654 81.2624 22.0339 87.6254 22.0339 95.0874V117.592C22.0339 125.055 24.6654 131.418 29.9284 136.681C35.1914 141.944 41.5541 144.575 49.0166 144.575H49.8414C57.2253 144.575 63.5488 141.944 68.8118 136.681C74.1533 131.418 76.8241 125.055 76.8241 117.592ZM49.0166 46.0714H49.8414C63.3524 46.0714 74.8996 50.8624 84.4825 60.4464C94.0665 70.0294 98.8585 81.5764 98.8585 95.0874V117.592C98.8585 131.103 94.0665 142.651 84.4825 152.234C74.8996 161.817 63.3524 166.609 49.8414 166.609H49.0166C35.5056 166.609 23.9584 161.817 14.375 152.234C4.7917 142.651 0 131.103 0 117.592V95.0874C0 81.5764 4.7917 70.0294 14.375 60.4464C23.9584 50.8624 35.5056 46.0714 49.0166 46.0714ZM192.296 117.592V95.0874C192.296 87.6254 189.626 81.2624 184.284 75.9994C179.021 70.7364 172.698 68.1044 165.314 68.1044H164.488C157.025 68.1044 150.664 70.7364 145.401 75.9994C140.138 81.2624 137.505 87.6254 137.505 95.0874V117.592C137.505 125.055 140.138 131.418 145.401 136.681C150.664 141.944 157.025 144.575 164.488 144.575H165.314C172.698 144.575 179.021 141.944 184.284 136.681C189.626 131.418 192.296 125.055 192.296 117.592ZM195.478 3.1814C197.599 1.0605 200.191 0 203.254 0C206.318 0 208.909 1.0605 211.03 3.1814C213.23 5.3809 214.329 7.9731 214.329 10.9581V155.533C214.329 158.597 213.23 161.228 211.03 163.428C208.909 165.549 206.318 166.609 203.254 166.609C197.52 166.609 193.985 163.82 192.65 158.243C184.402 163.82 175.29 166.609 165.314 166.609H164.488C150.977 166.609 139.43 161.817 129.846 152.234C120.263 142.651 115.472 131.103 115.472 117.592V95.0874C115.472 81.5764 120.263 70.0294 129.846 60.4464C139.43 50.8624 150.977 46.0714 164.488 46.0714H165.314C175.054 46.0714 184.048 48.7814 192.296 54.2014V10.9581C192.296 7.9731 193.357 5.3809 195.478 3.1814ZM248.146 166.609C245.083 166.609 242.452 165.549 240.253 163.428C238.132 161.228 237.07 158.597 237.07 155.533V57.3824C237.07 54.3194 238.132 51.7264 240.253 49.6054C242.452 47.4844 245.083 46.4244 248.146 46.4244C251.131 46.4244 253.723 47.4844 255.923 49.6054C258.044 51.7264 259.104 54.3194 259.104 57.3824V155.533C259.104 158.597 258.044 161.228 255.923 163.428C253.723 165.549 251.131 166.609 248.146 166.609ZM260.518 23.3301C260.518 26.7078 259.301 29.6142 256.865 32.0494C254.43 34.4845 251.524 35.702 248.146 35.702C244.69 35.702 241.744 34.4845 239.309 32.0494C236.874 29.6142 235.656 26.7078 235.656 23.3301C235.656 19.8738 236.874 16.9281 239.309 14.4929C241.744 12.0578 244.69 10.8403 248.146 10.8403C251.524 10.8403 254.43 12.0578 256.865 14.4929C259.301 16.9281 260.518 19.8738 260.518 23.3301Z" fill="black"/>
<path d="M322.401 63.7805C321.73 63.7805 320.055 65.3225 317.373 68.4055C314.826 71.3555 311.877 74.9745 308.525 79.2645C305.308 83.5545 301.956 88.0465 298.47 92.7385C295.119 97.4305 292.237 101.519 289.823 105.004C288.215 107.284 286.74 109.429 285.399 111.439C284.193 113.316 282.919 114.992 281.579 116.467C279.165 119.014 276.35 120.288 273.133 120.288C270.183 120.288 267.703 119.282 265.692 117.271C263.681 115.126 262.676 112.646 262.676 109.831C262.676 107.686 263.279 105.675 264.486 103.798C266.765 100.58 269.446 96.8275 272.529 92.5375C275.479 88.2475 278.562 83.8235 281.78 79.2645C285.131 74.7065 288.483 70.2155 291.834 65.7915C295.32 61.3675 298.739 57.4125 302.09 53.9275C305.442 50.4415 308.592 47.6265 311.542 45.4815C314.625 43.3362 317.44 42.2637 319.988 42.2637C326.423 42.2637 331.986 44.2075 336.678 48.0955C341.505 51.8495 345.459 56.7425 348.543 62.7755C351.626 68.8085 353.905 75.6455 355.38 83.2865C356.989 90.7945 357.793 98.3015 357.793 105.809C357.793 106.345 357.793 106.881 357.793 107.418C357.793 107.954 357.726 108.423 357.592 108.825C359.067 108.825 360.81 108.691 362.82 108.423C364.965 108.155 367.111 107.753 369.255 107.216C371.4 106.68 373.478 106.01 375.489 105.206C377.5 104.267 379.109 103.195 380.316 101.988C381.388 100.916 382.528 100.178 383.734 99.7765C385.075 99.3745 386.348 99.1735 387.555 99.1735C390.236 99.1735 392.649 100.178 394.794 102.189C396.939 104.066 398.012 106.613 398.012 109.831C398.012 113.853 396.403 117.07 393.186 119.483C390.102 121.896 386.281 123.773 381.723 125.114C377.299 126.454 372.674 127.46 367.848 128.13C363.156 128.666 359.201 129.136 355.983 129.538C354.777 134.23 353.101 138.788 350.956 143.212C348.811 147.636 346.13 151.591 342.912 155.077C339.829 158.562 336.209 161.378 332.053 163.523C328.031 165.668 323.406 166.74 318.178 166.74C307.453 166.74 299.275 164.461 293.644 159.903C288.148 155.345 285.399 149.58 285.399 142.609C285.399 138.051 286.807 133.828 289.622 129.94C292.438 125.918 296.191 122.433 300.884 119.483C305.576 116.534 310.938 114.188 316.971 112.445C323.004 110.568 329.238 109.496 335.673 109.227C336.075 106.814 336.276 104.267 336.276 101.586C336.276 97.0285 335.673 92.4705 334.466 87.9115C333.394 83.3535 332.053 79.3315 330.444 75.8465C328.97 72.2265 327.428 69.3445 325.819 67.1995C324.345 64.9205 323.205 63.7805 322.401 63.7805ZM317.172 146.832C322.133 145.894 325.618 144.017 327.629 141.201C329.774 138.252 331.584 134.297 333.059 129.337C330.645 129.471 328.098 129.672 325.417 129.94C322.736 130.074 320.189 130.61 317.775 131.549C315.362 132.353 313.15 133.694 311.139 135.571C309.263 137.448 307.922 140.196 307.118 143.816C307.118 144.486 307.855 145.156 309.33 145.827C310.804 146.631 312.614 147.033 314.759 147.033C315.832 147.033 316.636 146.966 317.172 146.832ZM436.694 63.7805C436.024 63.7805 434.348 65.3225 431.667 68.4055C429.12 71.3555 426.17 74.9745 422.819 79.2645C419.601 83.5545 416.25 88.0465 412.764 92.7385C409.413 97.4305 406.53 101.519 404.117 105.004C402.508 107.284 401.034 109.429 399.693 111.439C398.486 113.316 397.213 114.992 395.872 116.467C393.459 119.014 390.644 120.288 387.426 120.288C384.477 120.288 381.997 119.282 379.986 117.271C377.975 115.126 376.969 112.646 376.969 109.831C376.969 107.686 377.573 105.675 378.779 103.798C381.058 100.58 383.74 96.8275 386.823 92.5375C389.772 88.2475 392.856 83.8235 396.073 79.2645C399.425 74.7065 402.776 70.2155 406.128 65.7915C409.614 61.3675 413.032 57.4125 416.384 53.9275C419.735 50.4415 422.886 47.6265 425.835 45.4815C428.919 43.3362 431.734 42.2637 434.281 42.2637C440.716 42.2637 446.28 44.2075 450.972 48.0955C455.798 51.8495 459.753 56.7425 462.836 62.7755C465.92 68.8085 468.199 75.6455 469.674 83.2865C471.282 90.7945 472.087 98.3015 472.087 105.809C472.087 106.345 472.087 106.881 472.087 107.418C472.087 107.954 472.02 108.423 471.886 108.825C473.36 108.825 475.103 108.691 477.114 108.423C479.259 108.155 481.404 107.753 483.549 107.216C485.694 106.68 487.772 106.01 489.783 105.206C491.794 104.267 493.403 103.195 494.609 101.988C495.682 100.916 496.821 100.178 498.028 99.7765C499.369 99.3745 500.642 99.1735 501.849 99.1735C504.53 99.1735 506.943 100.178 509.088 102.189C511.233 104.066 512.306 106.613 512.306 109.831C512.306 113.853 510.697 117.07 507.479 119.483C504.396 121.896 500.575 123.773 496.017 125.114C491.593 126.454 486.968 127.46 482.141 128.13C477.449 128.666 473.494 129.136 470.277 129.538C469.07 134.23 467.395 138.788 465.25 143.212C463.105 147.636 460.423 151.591 457.206 155.077C454.122 158.562 450.503 161.378 446.347 163.523C442.325 165.668 437.7 166.74 432.471 166.74C421.746 166.74 413.568 164.461 407.938 159.903C402.441 155.345 399.693 149.58 399.693 142.609C399.693 138.051 401.101 133.828 403.916 129.94C406.731 125.918 410.485 122.433 415.177 119.483C419.869 116.534 425.232 114.188 431.265 112.445C437.298 110.568 443.531 109.496 449.966 109.227C450.369 106.814 450.57 104.267 450.57 101.586C450.57 97.0285 449.966 92.4705 448.76 87.9115C447.687 83.3535 446.347 79.3315 444.738 75.8465C443.263 72.2265 441.722 69.3445 440.113 67.1995C438.638 64.9205 437.499 63.7805 436.694 63.7805ZM431.466 146.832C436.426 145.894 439.912 144.017 441.923 141.201C444.068 138.252 445.878 134.297 447.352 129.337C444.939 129.471 442.392 129.672 439.711 129.94C437.029 130.074 434.482 130.61 432.069 131.549C429.656 132.353 427.444 133.694 425.433 135.571C423.556 137.448 422.216 140.196 421.411 143.816C421.411 144.486 422.148 145.156 423.623 145.827C425.098 146.631 426.908 147.033 429.053 147.033C430.125 147.033 430.93 146.966 431.466 146.832Z" fill="#4787C6"/>
<path d="M529.161 95.4415V95.5585H583.833C583.755 88.1755 581.123 81.8125 575.939 76.4705C570.597 71.2075 564.274 68.5765 556.969 68.5765H556.144C548.681 68.5765 542.319 71.2075 537.056 76.4705C531.793 81.7335 529.161 88.0575 529.161 95.4415ZM605.16 87.0755C605.71 89.8245 605.985 92.6135 605.985 95.4415C605.985 99.4475 604.964 103.14 602.922 106.517C598.68 113.823 592.356 117.476 583.951 117.476L529.161 117.593C529.161 125.056 531.793 131.419 537.056 136.682C542.319 141.945 548.681 144.576 556.144 144.576H556.969C566.081 144.576 573.347 140.845 578.767 133.382C581.909 129.062 586.033 127.805 591.139 129.612C594.674 130.79 596.991 133.147 598.091 136.682C599.19 140.295 598.641 143.594 596.441 146.579C586.622 159.933 573.465 166.61 556.969 166.61H556.144C542.711 166.61 531.203 161.858 521.62 152.353C512.115 142.926 507.284 131.497 507.127 118.065V95.4415C507.127 81.9305 511.919 70.4225 521.502 60.9175C531.086 51.3335 542.633 46.5425 556.144 46.5425H556.969C570.637 46.5425 582.262 51.4125 591.846 61.1535C596.402 65.7875 599.897 71.0895 602.333 77.0595C603.668 80.2805 604.611 83.6185 605.16 87.0755ZM637.445 166.61C634.382 166.61 631.75 165.55 629.551 163.429C627.43 161.229 626.369 158.598 626.369 155.534V57.3825C626.369 54.3185 627.43 51.7265 629.551 49.6055C631.75 47.4845 634.382 46.4245 637.445 46.4245C640.43 46.4245 643.023 47.4845 645.222 49.6055C647.343 51.7265 648.403 54.3185 648.403 57.3825V155.534C648.403 158.598 647.343 161.229 645.222 163.429C643.023 165.55 640.43 166.61 637.445 166.61ZM649.817 23.3301C649.817 26.7078 648.6 29.6143 646.165 32.0494C643.73 34.4845 640.823 35.7021 637.445 35.7021C633.989 35.7021 631.043 34.4845 628.608 32.0494C626.173 29.6143 624.956 26.7078 624.956 23.3301C624.956 19.8738 626.173 16.9281 628.608 14.493C631.043 12.0578 633.989 10.8403 637.445 10.8403C640.823 10.8403 643.73 12.0578 646.165 14.493C648.6 16.9281 649.817 19.8738 649.817 23.3301ZM743.255 117.593V95.0875C743.255 87.6255 740.584 81.2625 735.243 75.9995C729.98 70.7365 723.656 68.1045 716.273 68.1045H715.448C707.985 68.1045 701.623 70.7365 696.36 75.9995C691.097 81.2625 688.465 87.6255 688.465 95.0875V117.593C688.465 125.056 691.097 131.419 696.36 136.682C701.623 141.945 707.985 144.576 715.448 144.576H716.273C723.656 144.576 729.98 141.945 735.243 136.682C740.584 131.419 743.255 125.056 743.255 117.593ZM743.609 54.4365C744.944 48.8595 748.479 46.0705 754.213 46.0705C757.277 46.0705 759.869 47.1315 761.99 49.2525C764.189 51.4515 765.289 54.0445 765.289 57.0295V155.534C765.289 158.598 764.189 161.229 761.99 163.429C759.869 165.55 757.277 166.61 754.213 166.61C748.479 166.61 744.944 163.821 743.609 158.244C735.361 163.821 726.249 166.61 716.273 166.61H715.448C701.937 166.61 690.39 161.818 680.806 152.235C671.223 142.652 666.431 131.104 666.431 117.593V95.0875C666.431 81.5765 671.223 70.0295 680.806 60.4465C690.39 50.8625 701.937 46.0705 715.448 46.0705H716.273C726.17 46.0705 735.282 48.8595 743.609 54.4365Z" fill="black"/>
</svg>
