<svg width="230" height="50" viewBox="0 0 230 50" fill="none" xmlns="http://www.w3.org/2000/svg">
<path d="M23.0887 35.2621V28.5136C23.0887 26.276 22.286 24.3679 20.6807 22.7897C19.0989 21.2115 17.1985 20.4223 14.9793 20.4223H14.7314C12.4887 20.4223 10.5764 21.2115 8.99468 22.7897C7.41294 24.3679 6.62207 26.276 6.62207 28.5136V35.2621C6.62207 37.5 7.41294 39.4081 8.99468 40.9863C10.5764 42.5645 12.4887 43.3535 14.7314 43.3535H14.9793C17.1985 43.3535 19.0989 42.5645 20.6807 40.9863C22.286 39.4081 23.0887 37.5 23.0887 35.2621ZM14.7314 13.8153H14.9793C19.0399 13.8153 22.5103 15.252 25.3904 18.1259C28.2707 20.9995 29.7109 24.4621 29.7109 28.5136V35.2621C29.7109 39.3136 28.2707 42.7765 25.3904 45.6501C22.5103 48.5238 19.0399 49.9607 14.9793 49.9607H14.7314C10.6708 49.9607 7.20045 48.5238 4.32026 45.6501C1.4401 42.7765 0 39.3136 0 35.2621V28.5136C0 24.4621 1.4401 20.9995 4.32026 18.1259C7.20045 15.252 10.6708 13.8153 14.7314 13.8153ZM57.7925 35.2621V28.5136C57.7925 26.276 56.99 24.3679 55.3845 22.7897C53.8028 21.2115 51.9025 20.4223 49.6833 20.4223H49.4354C47.1924 20.4223 45.2804 21.2115 43.6987 22.7897C42.1169 24.3679 41.3259 26.276 41.3259 28.5136V35.2621C41.3259 37.5 42.1169 39.4081 43.6987 40.9863C45.2804 42.5645 47.1924 43.3535 49.4354 43.3535H49.6833C51.9025 43.3535 53.8028 42.5645 55.3845 40.9863C56.99 39.4081 57.7925 37.5 57.7925 35.2621ZM58.7488 0.953998C59.3862 0.31801 60.1652 0 61.0858 0C62.0066 0 62.7856 0.31801 63.4231 0.953998C64.0843 1.61356 64.4146 2.39087 64.4146 3.28598V46.6394C64.4146 47.5582 64.0843 48.3471 63.4231 49.0069C62.7856 49.6429 62.0066 49.9607 61.0858 49.9607C59.3625 49.9607 58.3001 49.1244 57.8989 47.452C55.42 49.1244 52.6815 49.9607 49.6833 49.9607H49.4354C45.3748 49.9607 41.9044 48.5238 39.0241 45.6501C36.144 42.7765 34.7038 39.3136 34.7038 35.2621V28.5136C34.7038 24.4621 36.144 20.9995 39.0241 18.1259C41.9044 15.252 45.3748 13.8153 49.4354 13.8153H49.6833C52.6106 13.8153 55.3136 14.628 57.7925 16.2532V3.28598C57.7925 2.39087 58.1113 1.61356 58.7488 0.953998ZM74.5779 49.9607C73.6574 49.9607 72.8663 49.6429 72.2055 49.0069C71.568 48.3471 71.2491 47.5582 71.2491 46.6394V17.2071C71.2491 16.2886 71.568 15.5111 72.2055 14.875C72.8663 14.239 73.6574 13.9212 74.5779 13.9212C75.475 13.9212 76.254 14.239 76.9152 14.875C77.5527 15.5111 77.8712 16.2886 77.8712 17.2071V46.6394C77.8712 47.5582 77.5527 48.3471 76.9152 49.0069C76.254 49.6429 75.475 49.9607 74.5779 49.9607ZM78.2962 6.99594C78.2962 8.0088 77.9304 8.88033 77.1983 9.61057C76.4665 10.3408 75.5931 10.7059 74.5779 10.7059C73.5392 10.7059 72.6539 10.3408 71.922 9.61057C71.1902 8.88033 70.8242 8.0088 70.8242 6.99594C70.8242 5.95951 71.1902 5.07619 71.922 4.34595C72.6539 3.61574 73.5392 3.25065 74.5779 3.25065C75.5931 3.25065 76.4665 3.61574 77.1983 4.34595C77.9304 5.07619 78.2962 5.95951 78.2962 6.99594Z" fill="#FAFAFA"/>
<path d="M96.8941 19.1255C96.6924 19.1255 96.189 19.5879 95.383 20.5124C94.6175 21.397 93.7312 22.4822 92.7238 23.7687C91.7569 25.0551 90.7495 26.4021 89.7019 27.8091C88.6947 29.2161 87.8286 30.4422 87.1031 31.4873C86.6198 32.171 86.1765 32.8142 85.7735 33.4169C85.411 33.9798 85.0282 34.4823 84.6254 34.9246C83.8999 35.6884 83.0539 36.0704 82.0871 36.0704C81.2005 36.0704 80.4551 35.7688 79.8508 35.1657C79.2464 34.5225 78.9443 33.7788 78.9443 32.9347C78.9443 32.2915 79.1256 31.6885 79.4883 31.1256C80.1732 30.1606 80.979 29.0352 81.9056 27.7488C82.7921 26.4624 83.7187 25.1358 84.6858 23.7687C85.6929 22.4019 86.7004 21.0552 87.7075 19.7286C88.7552 18.4019 89.7827 17.216 90.7898 16.1709C91.7972 15.1256 92.7439 14.2815 93.6305 13.6383C94.5571 12.9949 95.4031 12.6733 96.1689 12.6733C98.1028 12.6733 99.7747 13.2562 101.185 14.4221C102.636 15.5478 103.824 17.0151 104.751 18.8242C105.677 20.6333 106.362 22.6835 106.806 24.9747C107.289 27.2261 107.531 29.4772 107.531 31.7287C107.531 31.8894 107.531 32.0501 107.531 32.2111C107.531 32.3719 107.511 32.5125 107.47 32.6331C107.914 32.6331 108.438 32.5929 109.042 32.5125C109.686 32.4321 110.331 32.3116 110.976 32.1506C111.62 31.9898 112.245 31.7889 112.849 31.5478C113.454 31.2663 113.937 30.9448 114.3 30.5829C114.622 30.2614 114.965 30.0401 115.327 29.9196C115.73 29.799 116.113 29.7387 116.475 29.7387C117.281 29.7387 118.006 30.0401 118.651 30.6431C119.296 31.206 119.618 31.9697 119.618 32.9347C119.618 34.1408 119.135 35.1055 118.168 35.829C117.241 36.5526 116.093 37.1155 114.723 37.5176C113.393 37.9194 112.003 38.2211 110.553 38.422C109.143 38.5827 107.954 38.7237 106.987 38.8442C106.624 40.2512 106.121 41.618 105.476 42.9446C104.831 44.2712 104.026 45.4572 103.058 46.5025C102.132 47.5476 101.044 48.392 99.7949 49.0352C98.5861 49.6784 97.1961 49.9999 95.6249 49.9999C92.4016 49.9999 89.9438 49.3165 88.2514 47.9497C86.5997 46.5829 85.7735 44.8541 85.7735 42.7638C85.7735 41.397 86.1967 40.1306 87.0427 38.9648C87.889 37.7587 89.0169 36.7136 90.4274 35.829C91.8375 34.9447 93.449 34.2412 95.2621 33.7186C97.0753 33.1557 98.9489 32.8343 100.883 32.7536C101.004 32.03 101.064 31.2663 101.064 30.4623C101.064 29.0955 100.883 27.7287 100.52 26.3616C100.198 24.9948 99.7949 23.7888 99.3113 22.7437C98.8683 21.6582 98.4049 20.794 97.9213 20.1508C97.4783 19.4674 97.1357 19.1255 96.8941 19.1255ZM95.3225 44.0301C96.8135 43.7488 97.8609 43.186 98.4653 42.3416C99.1099 41.4573 99.6539 40.2713 100.097 38.7839C99.3717 38.8241 98.6063 38.8844 97.8005 38.9648C96.9948 39.0049 96.2293 39.1657 95.5038 39.4472C94.7786 39.6883 94.1138 40.0905 93.5094 40.6533C92.9456 41.2162 92.5426 42.0402 92.3009 43.1257C92.3009 43.3266 92.5224 43.5275 92.9657 43.7287C93.4087 43.9698 93.9527 44.0904 94.5973 44.0904C94.9198 44.0904 95.1615 44.0703 95.3225 44.0301ZM131.244 19.1255C131.042 19.1255 130.539 19.5879 129.733 20.5124C128.967 21.397 128.081 22.4822 127.074 23.7687C126.107 25.0551 125.099 26.4021 124.052 27.8091C123.045 29.2161 122.178 30.4422 121.453 31.4873C120.969 32.171 120.526 32.8142 120.123 33.4169C119.761 33.9798 119.378 34.4823 118.975 34.9246C118.25 35.6884 117.404 36.0704 116.437 36.0704C115.55 36.0704 114.805 35.7688 114.201 35.1657C113.596 34.5225 113.294 33.7788 113.294 32.9347C113.294 32.2915 113.475 31.6885 113.838 31.1256C114.523 30.1606 115.329 29.0352 116.255 27.7488C117.142 26.4624 118.069 25.1358 119.035 23.7687C120.043 22.4019 121.05 21.0552 122.057 19.7286C123.105 18.4019 124.132 17.216 125.14 16.1709C126.147 15.1256 127.094 14.2815 127.98 13.6383C128.907 12.9949 129.753 12.6733 130.518 12.6733C132.452 12.6733 134.125 13.2562 135.535 14.4221C136.985 15.5478 138.174 17.0151 139.1 18.8242C140.027 20.6333 140.712 22.6835 141.155 24.9747C141.639 27.2261 141.881 29.4772 141.881 31.7287C141.881 31.8894 141.881 32.0501 141.881 32.2111C141.881 32.3719 141.861 32.5125 141.82 32.6331C142.263 32.6331 142.787 32.5929 143.391 32.5125C144.036 32.4321 144.681 32.3116 145.325 32.1506C145.97 31.9898 146.595 31.7889 147.199 31.5478C147.803 31.2663 148.287 30.9448 148.649 30.5829C148.972 30.2614 149.314 30.0401 149.677 29.9196C150.08 29.799 150.463 29.7387 150.825 29.7387C151.631 29.7387 152.356 30.0401 153.001 30.6431C153.646 31.206 153.968 31.9697 153.968 32.9347C153.968 34.1408 153.485 35.1055 152.517 35.829C151.591 36.5526 150.442 37.1155 149.073 37.5176C147.743 37.9194 146.353 38.2211 144.902 38.422C143.492 38.5827 142.304 38.7237 141.337 38.8442C140.974 40.2512 140.471 41.618 139.826 42.9446C139.181 44.2712 138.375 45.4572 137.408 46.5025C136.481 47.5476 135.394 48.392 134.145 49.0352C132.936 49.6784 131.546 49.9999 129.974 49.9999C126.751 49.9999 124.293 49.3165 122.601 47.9497C120.949 46.5829 120.123 44.8541 120.123 42.7638C120.123 41.397 120.547 40.1306 121.393 38.9648C122.239 37.7587 123.367 36.7136 124.777 35.829C126.187 34.9447 127.799 34.2412 129.612 33.7186C131.425 33.1557 133.298 32.8343 135.232 32.7536C135.354 32.03 135.414 31.2663 135.414 30.4623C135.414 29.0955 135.232 27.7287 134.87 26.3616C134.548 24.9948 134.145 23.7888 133.661 22.7437C133.218 21.6582 132.755 20.794 132.271 20.1508C131.828 19.4674 131.486 19.1255 131.244 19.1255ZM129.672 44.0301C131.163 43.7488 132.211 43.186 132.815 42.3416C133.46 41.4573 134.004 40.2713 134.447 38.7839C133.722 38.8241 132.956 38.8844 132.15 38.9648C131.344 39.0049 130.579 39.1657 129.854 39.4472C129.128 39.6883 128.464 40.0905 127.859 40.6533C127.295 41.2162 126.892 42.0402 126.651 43.1257C126.651 43.3266 126.872 43.5275 127.315 43.7287C127.759 43.9698 128.303 44.0904 128.947 44.0904C129.269 44.0904 129.511 44.0703 129.672 44.0301Z" fill="#FAFAFA"/>
<path d="M159.034 28.6199V28.655H175.465C175.442 26.441 174.651 24.533 173.093 22.9311C171.487 21.3529 169.587 20.5639 167.392 20.5639H167.144C164.901 20.5639 162.989 21.3529 161.407 22.9311C159.825 24.5093 159.034 26.4057 159.034 28.6199ZM181.875 26.1112C182.04 26.9355 182.123 27.7719 182.123 28.6199C182.123 29.8211 181.816 30.9283 181.202 31.9409C179.927 34.1317 178.027 35.2272 175.501 35.2272L159.034 35.2622C159.034 37.5002 159.825 39.4082 161.407 40.9864C162.989 42.5646 164.901 43.3536 167.144 43.3536H167.392C170.13 43.3536 172.314 42.2348 173.943 39.9968C174.887 38.7014 176.127 38.3245 177.661 38.8663C178.723 39.2196 179.42 39.9264 179.75 40.9864C180.081 42.0698 179.916 43.0591 179.255 43.9542C176.304 47.9586 172.349 49.9608 167.392 49.9608H167.144C163.107 49.9608 159.648 48.5359 156.768 45.6856C153.911 42.8588 152.459 39.4316 152.412 35.4038V28.6199C152.412 24.5684 153.852 21.1175 156.732 18.2673C159.613 15.3933 163.083 13.9567 167.144 13.9567H167.392C171.499 13.9567 174.993 15.417 177.874 18.338C179.243 19.7276 180.293 21.3175 181.025 23.1077C181.427 24.0736 181.71 25.0745 181.875 26.1112ZM191.578 49.9608C190.657 49.9608 189.866 49.643 189.205 49.007C188.568 48.3473 188.249 47.5583 188.249 46.6395V17.2072C188.249 16.2884 188.568 15.5112 189.205 14.8752C189.866 14.2391 190.657 13.9213 191.578 13.9213C192.475 13.9213 193.254 14.2391 193.915 14.8752C194.553 15.5112 194.871 16.2884 194.871 17.2072V46.6395C194.871 47.5583 194.553 48.3473 193.915 49.007C193.254 49.643 192.475 49.9608 191.578 49.9608ZM195.296 6.99602C195.296 8.00888 194.93 8.88045 194.199 9.61065C193.467 10.3409 192.593 10.706 191.578 10.706C190.539 10.706 189.654 10.3409 188.922 9.61065C188.19 8.88045 187.824 8.00888 187.824 6.99602C187.824 5.95958 188.19 5.07627 188.922 4.34606C189.654 3.61582 190.539 3.25073 191.578 3.25073C192.593 3.25073 193.467 3.61582 194.199 4.34606C194.93 5.07627 195.296 5.95958 195.296 6.99602ZM223.378 35.2622V28.5137C223.378 26.2761 222.575 24.3681 220.97 22.7899C219.388 21.2117 217.488 20.4224 215.269 20.4224H215.021C212.778 20.4224 210.866 21.2117 209.284 22.7899C207.702 24.3681 206.911 26.2761 206.911 28.5137V35.2622C206.911 37.5002 207.702 39.4082 209.284 40.9864C210.866 42.5646 212.778 43.3536 215.021 43.3536H215.269C217.488 43.3536 219.388 42.5646 220.97 40.9864C222.575 39.4082 223.378 37.5002 223.378 35.2622ZM223.484 16.3238C223.886 14.6515 224.948 13.8151 226.671 13.8151C227.592 13.8151 228.371 14.1333 229.009 14.7693C229.669 15.4287 230 16.2063 230 17.1014V46.6395C230 47.5583 229.669 48.3473 229.009 49.007C228.371 49.643 227.592 49.9608 226.671 49.9608C224.948 49.9608 223.886 49.1245 223.484 47.4521C221.006 49.1245 218.267 49.9608 215.269 49.9608H215.021C210.96 49.9608 207.49 48.5239 204.61 45.6502C201.729 42.7766 200.289 39.3138 200.289 35.2622V28.5137C200.289 24.4622 201.729 20.9996 204.61 18.126C207.49 15.2521 210.96 13.8151 215.021 13.8151H215.269C218.243 13.8151 220.982 14.6515 223.484 16.3238Z" fill="#FAFAFA"/>
</svg>
